M48
; DRILL file {KiCad (5.1.4-0-10_14)} date Sunday, September 08, 2019 at 05:56:21 PM
; FORMAT={-:-/ absolute / inch / decimal}
; #@! TF.CreationDate,2019-09-08T17:56:21-07:00
; #@! TF.GenerationSoftware,Kicad,Pcbnew,(5.1.4-0-10_14)
FMAT,2
INCH
T1C0.0100
T2C0.0160
T3C0.0394
%
G90
G05
T1
X4.795Y-4.415
X4.795Y-4.62
X4.795Y-4.82
X4.795Y-5.025
X4.795Y-5.615
X4.8Y-5.09
X4.85Y-5.03
X4.89Y-4.99
X4.9Y-5.325
X4.991Y-4.9321
X5.0Y-4.415
X5.0Y-5.615
X5.0371Y-4.886
X5.09Y-4.86
X5.1Y-4.53
X5.1Y-4.66
X5.1Y-4.735
X5.1Y-5.325
X5.1258Y-4.8058
X5.15Y-4.71
X5.181Y-4.7627
X5.181Y-4.8295
X5.2Y-4.415
X5.2Y-5.615
X5.295Y-5.325
X5.3Y-4.735
X5.3Y-4.785
X5.345Y-5.035
X5.4Y-4.415
X5.4Y-5.615
X5.427Y-4.985
X5.439Y-4.8711
X5.4972Y-4.7578
X5.5108Y-4.6142
X5.52Y-4.94
X5.52Y-5.14
X5.6Y-4.415
X5.6Y-5.615
X5.61Y-5.035
X5.62Y-4.471
X5.625Y-4.585
X5.6658Y-4.5642
X5.67Y-5.13
X5.68Y-4.49
X5.68Y-4.91
X5.7547Y-4.8803
X5.76Y-4.53
X5.76Y-4.725
X5.77Y-4.95
X5.795Y-4.415
X5.8Y-5.225
X5.8Y-5.34
X5.8Y-5.615
X5.86Y-4.635
X5.861Y-5.0301
X5.89Y-4.88
X5.895Y-5.13
X5.9014Y-5.0214
X5.94Y-4.91
X5.9525Y-4.6941
X6.0Y-4.415
X6.0Y-5.615
X6.045Y-5.23
X6.05Y-5.365
X6.09Y-5.34
X6.095Y-5.23
X6.1Y-4.53
X6.1Y-4.73
X6.1394Y-5.319
X6.14Y-5.23
X6.195Y-4.415
X6.2Y-5.615
X6.24Y-5.22
X6.2402Y-5.2833
X6.29Y-4.72
X6.36Y-5.24
X6.4Y-4.415
X6.4Y-5.615
X6.48Y-5.035
X6.5Y-5.24
X6.56Y-4.52
X6.56Y-4.715
X6.56Y-4.915
X6.56Y-5.115
X6.695Y-5.615
X6.7Y-4.415
X6.7Y-4.62
X6.7Y-4.815
X6.7Y-5.025
X6.7Y-5.23
T2
X5.44Y-4.53
X6.199Y-5.2284
X6.24Y-4.59
T3
X4.8Y-5.42
X4.8Y-5.52
X4.9Y-5.42
X4.9Y-5.52
X5.0Y-5.42
X5.0Y-5.52
X5.1Y-5.42
X5.1Y-5.52
X5.2Y-5.42
X5.2Y-5.52
X5.3Y-5.42
X5.3Y-5.52
X5.4Y-5.42
X5.4Y-5.52
X5.5Y-5.42
X5.5Y-5.52
X5.6Y-5.42
X5.6Y-5.52
X5.7Y-5.42
X5.7Y-5.52
X5.8Y-5.42
X5.8Y-5.52
X5.9Y-5.42
X5.9Y-5.52
X6.0Y-5.42
X6.0Y-5.52
X6.1Y-5.42
X6.1Y-5.52
X6.2Y-5.42
X6.2Y-5.52
X6.3Y-5.42
X6.3Y-5.52
X6.4Y-5.42
X6.4Y-5.52
X6.5Y-5.42
X6.5Y-5.52
X6.6Y-5.42
X6.6Y-5.52
X6.7Y-5.42
X6.7Y-5.52
T0
M30
