G04 #@! TF.GenerationSoftware,KiCad,Pcbnew,(5.1.4-0-10_14)*
G04 #@! TF.CreationDate,2019-09-08T17:56:33-07:00*
G04 #@! TF.ProjectId,de10-lite-ram-rom,64653130-2d6c-4697-9465-2d72616d2d72,rev?*
G04 #@! TF.SameCoordinates,Original*
G04 #@! TF.FileFunction,Paste,Top*
G04 #@! TF.FilePolarity,Positive*
%FSLAX46Y46*%
G04 Gerber Fmt 4.6, Leading zero omitted, Abs format (unit mm)*
G04 Created by KiCad (PCBNEW (5.1.4-0-10_14)) date 2019-09-08 17:56:33*
%MOMM*%
%LPD*%
G04 APERTURE LIST*
%ADD10C,0.100000*%
%ADD11C,0.950000*%
%ADD12R,1.925000X0.700000*%
%ADD13R,0.700000X1.925000*%
%ADD14R,1.600000X0.600000*%
G04 APERTURE END LIST*
D10*
G36*
X142282779Y-124240144D02*
G01*
X142305834Y-124243563D01*
X142328443Y-124249227D01*
X142350387Y-124257079D01*
X142371457Y-124267044D01*
X142391448Y-124279026D01*
X142410168Y-124292910D01*
X142427438Y-124308562D01*
X142443090Y-124325832D01*
X142456974Y-124344552D01*
X142468956Y-124364543D01*
X142478921Y-124385613D01*
X142486773Y-124407557D01*
X142492437Y-124430166D01*
X142495856Y-124453221D01*
X142497000Y-124476500D01*
X142497000Y-124951500D01*
X142495856Y-124974779D01*
X142492437Y-124997834D01*
X142486773Y-125020443D01*
X142478921Y-125042387D01*
X142468956Y-125063457D01*
X142456974Y-125083448D01*
X142443090Y-125102168D01*
X142427438Y-125119438D01*
X142410168Y-125135090D01*
X142391448Y-125148974D01*
X142371457Y-125160956D01*
X142350387Y-125170921D01*
X142328443Y-125178773D01*
X142305834Y-125184437D01*
X142282779Y-125187856D01*
X142259500Y-125189000D01*
X141684500Y-125189000D01*
X141661221Y-125187856D01*
X141638166Y-125184437D01*
X141615557Y-125178773D01*
X141593613Y-125170921D01*
X141572543Y-125160956D01*
X141552552Y-125148974D01*
X141533832Y-125135090D01*
X141516562Y-125119438D01*
X141500910Y-125102168D01*
X141487026Y-125083448D01*
X141475044Y-125063457D01*
X141465079Y-125042387D01*
X141457227Y-125020443D01*
X141451563Y-124997834D01*
X141448144Y-124974779D01*
X141447000Y-124951500D01*
X141447000Y-124476500D01*
X141448144Y-124453221D01*
X141451563Y-124430166D01*
X141457227Y-124407557D01*
X141465079Y-124385613D01*
X141475044Y-124364543D01*
X141487026Y-124344552D01*
X141500910Y-124325832D01*
X141516562Y-124308562D01*
X141533832Y-124292910D01*
X141552552Y-124279026D01*
X141572543Y-124267044D01*
X141593613Y-124257079D01*
X141615557Y-124249227D01*
X141638166Y-124243563D01*
X141661221Y-124240144D01*
X141684500Y-124239000D01*
X142259500Y-124239000D01*
X142282779Y-124240144D01*
X142282779Y-124240144D01*
G37*
D11*
X141972000Y-124714000D03*
D10*
G36*
X140532779Y-124240144D02*
G01*
X140555834Y-124243563D01*
X140578443Y-124249227D01*
X140600387Y-124257079D01*
X140621457Y-124267044D01*
X140641448Y-124279026D01*
X140660168Y-124292910D01*
X140677438Y-124308562D01*
X140693090Y-124325832D01*
X140706974Y-124344552D01*
X140718956Y-124364543D01*
X140728921Y-124385613D01*
X140736773Y-124407557D01*
X140742437Y-124430166D01*
X140745856Y-124453221D01*
X140747000Y-124476500D01*
X140747000Y-124951500D01*
X140745856Y-124974779D01*
X140742437Y-124997834D01*
X140736773Y-125020443D01*
X140728921Y-125042387D01*
X140718956Y-125063457D01*
X140706974Y-125083448D01*
X140693090Y-125102168D01*
X140677438Y-125119438D01*
X140660168Y-125135090D01*
X140641448Y-125148974D01*
X140621457Y-125160956D01*
X140600387Y-125170921D01*
X140578443Y-125178773D01*
X140555834Y-125184437D01*
X140532779Y-125187856D01*
X140509500Y-125189000D01*
X139934500Y-125189000D01*
X139911221Y-125187856D01*
X139888166Y-125184437D01*
X139865557Y-125178773D01*
X139843613Y-125170921D01*
X139822543Y-125160956D01*
X139802552Y-125148974D01*
X139783832Y-125135090D01*
X139766562Y-125119438D01*
X139750910Y-125102168D01*
X139737026Y-125083448D01*
X139725044Y-125063457D01*
X139715079Y-125042387D01*
X139707227Y-125020443D01*
X139701563Y-124997834D01*
X139698144Y-124974779D01*
X139697000Y-124951500D01*
X139697000Y-124476500D01*
X139698144Y-124453221D01*
X139701563Y-124430166D01*
X139707227Y-124407557D01*
X139715079Y-124385613D01*
X139725044Y-124364543D01*
X139737026Y-124344552D01*
X139750910Y-124325832D01*
X139766562Y-124308562D01*
X139783832Y-124292910D01*
X139802552Y-124279026D01*
X139822543Y-124267044D01*
X139843613Y-124257079D01*
X139865557Y-124249227D01*
X139888166Y-124243563D01*
X139911221Y-124240144D01*
X139934500Y-124239000D01*
X140509500Y-124239000D01*
X140532779Y-124240144D01*
X140532779Y-124240144D01*
G37*
D11*
X140222000Y-124714000D03*
D12*
X163310500Y-120269000D03*
X163310500Y-121539000D03*
X163310500Y-122809000D03*
X163310500Y-124079000D03*
X163310500Y-125349000D03*
X163310500Y-126619000D03*
X163310500Y-127889000D03*
X163310500Y-129159000D03*
D13*
X162433000Y-131306500D03*
X161163000Y-131306500D03*
X159893000Y-131306500D03*
X158623000Y-131306500D03*
X157353000Y-131306500D03*
X156083000Y-131306500D03*
X154813000Y-131306500D03*
X153543000Y-131306500D03*
D12*
X152665500Y-129159000D03*
X152665500Y-127889000D03*
X152665500Y-126619000D03*
X152665500Y-125349000D03*
X152665500Y-124079000D03*
X152665500Y-122809000D03*
X152665500Y-121539000D03*
X152665500Y-120269000D03*
D13*
X162433000Y-118121500D03*
X161163000Y-118121500D03*
X159893000Y-118121500D03*
X158623000Y-118121500D03*
X153543000Y-118121500D03*
X154813000Y-118121500D03*
X156083000Y-118121500D03*
X157353000Y-118121500D03*
D14*
X136918000Y-115189000D03*
X136918000Y-116459000D03*
X136918000Y-117729000D03*
X136918000Y-118999000D03*
X136918000Y-120269000D03*
X136918000Y-121539000D03*
X136918000Y-122809000D03*
X136918000Y-124089000D03*
X136918000Y-125339000D03*
X136918000Y-126619000D03*
X136918000Y-127889000D03*
X136918000Y-129159000D03*
X136918000Y-130429000D03*
X136918000Y-131699000D03*
X136918000Y-132969000D03*
X136918000Y-134239000D03*
X125718000Y-134239000D03*
X125718000Y-132969000D03*
X125718000Y-131699000D03*
X125718000Y-130429000D03*
X125718000Y-129159000D03*
X125718000Y-127889000D03*
X125718000Y-126619000D03*
X125718000Y-125339000D03*
X125718000Y-124089000D03*
X125718000Y-122809000D03*
X125718000Y-121539000D03*
X125718000Y-120269000D03*
X125718000Y-118999000D03*
X125718000Y-117729000D03*
X125718000Y-116459000D03*
X125718000Y-115189000D03*
D10*
G36*
X147235779Y-124240144D02*
G01*
X147258834Y-124243563D01*
X147281443Y-124249227D01*
X147303387Y-124257079D01*
X147324457Y-124267044D01*
X147344448Y-124279026D01*
X147363168Y-124292910D01*
X147380438Y-124308562D01*
X147396090Y-124325832D01*
X147409974Y-124344552D01*
X147421956Y-124364543D01*
X147431921Y-124385613D01*
X147439773Y-124407557D01*
X147445437Y-124430166D01*
X147448856Y-124453221D01*
X147450000Y-124476500D01*
X147450000Y-124951500D01*
X147448856Y-124974779D01*
X147445437Y-124997834D01*
X147439773Y-125020443D01*
X147431921Y-125042387D01*
X147421956Y-125063457D01*
X147409974Y-125083448D01*
X147396090Y-125102168D01*
X147380438Y-125119438D01*
X147363168Y-125135090D01*
X147344448Y-125148974D01*
X147324457Y-125160956D01*
X147303387Y-125170921D01*
X147281443Y-125178773D01*
X147258834Y-125184437D01*
X147235779Y-125187856D01*
X147212500Y-125189000D01*
X146637500Y-125189000D01*
X146614221Y-125187856D01*
X146591166Y-125184437D01*
X146568557Y-125178773D01*
X146546613Y-125170921D01*
X146525543Y-125160956D01*
X146505552Y-125148974D01*
X146486832Y-125135090D01*
X146469562Y-125119438D01*
X146453910Y-125102168D01*
X146440026Y-125083448D01*
X146428044Y-125063457D01*
X146418079Y-125042387D01*
X146410227Y-125020443D01*
X146404563Y-124997834D01*
X146401144Y-124974779D01*
X146400000Y-124951500D01*
X146400000Y-124476500D01*
X146401144Y-124453221D01*
X146404563Y-124430166D01*
X146410227Y-124407557D01*
X146418079Y-124385613D01*
X146428044Y-124364543D01*
X146440026Y-124344552D01*
X146453910Y-124325832D01*
X146469562Y-124308562D01*
X146486832Y-124292910D01*
X146505552Y-124279026D01*
X146525543Y-124267044D01*
X146546613Y-124257079D01*
X146568557Y-124249227D01*
X146591166Y-124243563D01*
X146614221Y-124240144D01*
X146637500Y-124239000D01*
X147212500Y-124239000D01*
X147235779Y-124240144D01*
X147235779Y-124240144D01*
G37*
D11*
X146925000Y-124714000D03*
D10*
G36*
X145485779Y-124240144D02*
G01*
X145508834Y-124243563D01*
X145531443Y-124249227D01*
X145553387Y-124257079D01*
X145574457Y-124267044D01*
X145594448Y-124279026D01*
X145613168Y-124292910D01*
X145630438Y-124308562D01*
X145646090Y-124325832D01*
X145659974Y-124344552D01*
X145671956Y-124364543D01*
X145681921Y-124385613D01*
X145689773Y-124407557D01*
X145695437Y-124430166D01*
X145698856Y-124453221D01*
X145700000Y-124476500D01*
X145700000Y-124951500D01*
X145698856Y-124974779D01*
X145695437Y-124997834D01*
X145689773Y-125020443D01*
X145681921Y-125042387D01*
X145671956Y-125063457D01*
X145659974Y-125083448D01*
X145646090Y-125102168D01*
X145630438Y-125119438D01*
X145613168Y-125135090D01*
X145594448Y-125148974D01*
X145574457Y-125160956D01*
X145553387Y-125170921D01*
X145531443Y-125178773D01*
X145508834Y-125184437D01*
X145485779Y-125187856D01*
X145462500Y-125189000D01*
X144887500Y-125189000D01*
X144864221Y-125187856D01*
X144841166Y-125184437D01*
X144818557Y-125178773D01*
X144796613Y-125170921D01*
X144775543Y-125160956D01*
X144755552Y-125148974D01*
X144736832Y-125135090D01*
X144719562Y-125119438D01*
X144703910Y-125102168D01*
X144690026Y-125083448D01*
X144678044Y-125063457D01*
X144668079Y-125042387D01*
X144660227Y-125020443D01*
X144654563Y-124997834D01*
X144651144Y-124974779D01*
X144650000Y-124951500D01*
X144650000Y-124476500D01*
X144651144Y-124453221D01*
X144654563Y-124430166D01*
X144660227Y-124407557D01*
X144668079Y-124385613D01*
X144678044Y-124364543D01*
X144690026Y-124344552D01*
X144703910Y-124325832D01*
X144719562Y-124308562D01*
X144736832Y-124292910D01*
X144755552Y-124279026D01*
X144775543Y-124267044D01*
X144796613Y-124257079D01*
X144818557Y-124249227D01*
X144841166Y-124243563D01*
X144864221Y-124240144D01*
X144887500Y-124239000D01*
X145462500Y-124239000D01*
X145485779Y-124240144D01*
X145485779Y-124240144D01*
G37*
D11*
X145175000Y-124714000D03*
M02*
